# Procedurally generated textured room
# 14.0m x 10.0m x 3.0m, tiles every 2.0m
mtllib room.mtl

# --- floor ---
v -7.0000 -5.0000 0.0000
v 7.0000 -5.0000 0.0000
v 7.0000 5.0000 0.0000
v -7.0000 5.0000 0.0000
vt 0.0000 0.0000
vt 7.0000 0.0000
vt 7.0000 5.0000
vt 0.0000 5.0000
vn 0 0 1
usemtl wood_floor
f 1/1/1 2/2/1 3/3/1
f 1/1/1 3/3/1 4/4/1

# --- ceiling ---
v -7.0000 -5.0000 3.0000
v -7.0000 5.0000 3.0000
v 7.0000 5.0000 3.0000
v 7.0000 -5.0000 3.0000
vt 0.0000 0.0000
vt 0.0000 5.0000
vt 7.0000 5.0000
vt 7.0000 0.0000
vn 0 0 -1
usemtl concrete_wall
f 5/5/2 6/6/2 7/7/2
f 5/5/2 7/7/2 8/8/2

# --- wall_yneg ---
v -7.0000 -5.0000 0.0000
v -7.0000 -5.0000 3.0000
v 7.0000 -5.0000 3.0000
v 7.0000 -5.0000 0.0000
vt 0.0000 0.0000
vt 0.0000 1.5000
vt 7.0000 1.5000
vt 7.0000 0.0000
vn 0 1 0
usemtl brick_wall
f 9/9/3 10/10/3 11/11/3
f 9/9/3 11/11/3 12/12/3

# --- wall_ypos ---
v 7.0000 5.0000 0.0000
v 7.0000 5.0000 3.0000
v -7.0000 5.0000 3.0000
v -7.0000 5.0000 0.0000
vt 0.0000 0.0000
vt 0.0000 1.5000
vt 7.0000 1.5000
vt 7.0000 0.0000
vn 0 -1 0
usemtl brick_wall
f 13/13/4 14/14/4 15/15/4
f 13/13/4 15/15/4 16/16/4

# --- wall_xneg ---
v -7.0000 5.0000 0.0000
v -7.0000 5.0000 3.0000
v -7.0000 -5.0000 3.0000
v -7.0000 -5.0000 0.0000
vt 0.0000 0.0000
vt 0.0000 1.5000
vt 5.0000 1.5000
vt 5.0000 0.0000
vn 1 0 0
usemtl metal_plate
f 17/17/5 18/18/5 19/19/5
f 17/17/5 19/19/5 20/20/5

# --- wall_xpos ---
v 7.0000 -5.0000 0.0000
v 7.0000 -5.0000 3.0000
v 7.0000 5.0000 3.0000
v 7.0000 5.0000 0.0000
vt 0.0000 0.0000
vt 0.0000 1.5000
vt 5.0000 1.5000
vt 5.0000 0.0000
vn -1 0 0
usemtl metal_plate
f 21/21/6 22/22/6 23/23/6
f 21/21/6 23/23/6 24/24/6
